<?xml version="1.0" standalone="no"?>
<!DOCTYPE svg PUBLIC "-//W3C//DTD SVG 1.1//EN" "http://www.w3.org/Graphics/SVG/1.1/DTD/svg11.dtd" >
<svg>
<metadata>
Created by FontForge 20090622 at Tue May 30 11:10:06 2017
 By deploy user
&#194;&#169;G.M.
</metadata>
<defs>
<font id="WalkwayExpandBlack" horiz-adv-x="709" >
  <font-face 
    font-family="Walkway Expand Black"
    font-weight="400"
    font-stretch="normal"
    units-per-em="1000"
    panose-1="0 0 4 0 0 0 0 0 0 0"
    ascent="800"
    descent="-200"
    x-height="488"
    cap-height="678"
    bbox="-230 -179 1422 874"
    underline-thickness="30"
    underline-position="-118"
    unicode-range="U+0020-U+2122"
  />
<missing-glyph horiz-adv-x="500" 
d="M63 0v874h375v-874h-375zM125 63h250v749h-250v-749z" />
    <glyph glyph-name=".notdef" horiz-adv-x="500" 
d="M63 0v874h375v-874h-375zM125 63h250v749h-250v-749z" />
    <glyph glyph-name=".null" horiz-adv-x="0" 
 />
    <glyph glyph-name="nonmarkingreturn" horiz-adv-x="478" 
 />
    <glyph glyph-name="space" unicode=" " horiz-adv-x="478" 
 />
    <glyph glyph-name="exclam" unicode="!" horiz-adv-x="262" 
d="M87 158v520h89v-520h-89zM131 0q-45 0 -45 38v60q0 38 45 38q43 0 43 -38v-60q0 -38 -43 -38z" />
    <glyph glyph-name="quotedbl" unicode="&#x22;" horiz-adv-x="394" 
d="M274 547q-45 0 -45 30v65q0 30 45 30q44 0 44 -30v-65q0 -30 -44 -30zM117 547q-43 0 -43 30v65q0 30 43 30q45 0 45 -30v-65q0 -30 -45 -30z" />
    <glyph glyph-name="numbersign" unicode="#" horiz-adv-x="717" 
d="M627 333h-120l-14 -37h118l-22 -69h-122l-25 -66h-93l26 66h-99l-26 -66h-91l26 66h-118l22 69h122l14 37h-123l31 69h118l25 66h93l-26 -66h98l24 66h93l-25 -66h121zM317 333l-14 -37h98l14 37h-98z" />
    <glyph glyph-name="dollar" unicode="$" horiz-adv-x="867" 
d="M718 33q-65 -32 -148 -44v-59h-88v51q-18 -1 -37 -1q-38 0 -73 3v-53h-89v62q-264 48 -264 231v38h88v-34q0 -123 176 -158v263q-235 42 -235 175q0 147 235 183v63h89v-56q23 1 48 1q33 0 62 -1v56h88v-66q239 -41 243 -238h-88q-6 69 -42.5 107t-112.5 55v-244
q120 -23 173 -50q88 -45 88 -140q0 -91 -113 -144zM482 621q-29 2 -62 2q-25 0 -48 -1v-226l110 -15v240zM720 237q-37 28 -150 51v-223q172 29 172 115q0 41 -22 57zM283 612q-146 -27 -146 -105q0 -66 146 -97v202zM482 303l-110 15v-260q35 -3 75 -3q18 0 35 1v247z" />
    <glyph glyph-name="percent" unicode="%" horiz-adv-x="1012" 
d="M756 -19q-211 0 -211 187q0 192 212 192q210 0 210 -192q0 -187 -211 -187zM226 -2h-117l701 680h117zM256 281q-209 0 -209 187q0 191 211 191t211 -191q0 -187 -213 -187zM756 286q-121 0 -121 -118q0 -113 122 -113q120 0 120 113q0 118 -121 118zM256 584
q-119 0 -119 -116q0 -113 121 -113t121 113q0 116 -123 116z" />
    <glyph glyph-name="ampersand" unicode="&#x26;" horiz-adv-x="814" 
d="M646 -19v102q-114 -99 -286 -99q-105 0 -196 33q-132 48 -132 147q0 122 249 217q-127 59 -127 154q0 78 91 116q64 27 145 27q85 0 148 -26q90 -38 90 -119q0 -87 -188 -170q-26 -12 -142 -58q-76 -31 -110 -52q-68 -42 -68 -89q0 -49 81 -79q71 -27 151 -27
q173 0 252 100q42 53 42 139h89v-316h-89zM393 604q-57 0 -101 -17q-50 -20 -50 -53q0 -70 144 -115q154 61 154 115q0 28 -32 46q-46 24 -115 24z" />
    <glyph glyph-name="quotesingle" unicode="'" horiz-adv-x="236" 
d="M117 547q-43 0 -43 30v65q0 30 43 30q45 0 45 -30v-65q0 -30 -45 -30z" />
    <glyph glyph-name="parenleft" unicode="(" horiz-adv-x="315" 
d="M248 -168q-182 201 -182 451q0 251 182 451h109q-110 -118 -158 -228q-45 -103 -45 -223t45 -223q48 -110 158 -228h-109z" />
    <glyph glyph-name="parenright" unicode=")" horiz-adv-x="315" 
d="M59 -168h-110q114 118 164 228q46 103 46 223t-46 223q-50 110 -164 228h110q188 -196 188 -451q0 -254 -188 -451z" />
    <glyph glyph-name="asterisk" unicode="*" horiz-adv-x="459" 
d="M342 558q55 -17 55 -41q0 -10 -12 -22q-19 -19 -52 -9l-72 22v-31q0 -34 -44 -34q-45 0 -45 34v31l-72 -22q-33 -10 -53 10q-12 11 -12 21q0 19 35 32q8 3 24 8q-57 17 -57 41q0 11 12.5 22t30.5 11q9 0 15 -2h-1q6 -1 78 -23v32q0 34 45 34q44 0 44 -34v-32l73 22
q10 3 18 3q20 0 34 -11q11 -12 11 -23q0 -25 -55 -39z" />
    <glyph glyph-name="plus" unicode="+" horiz-adv-x="756" 
d="M421 216v-149h-88v149h-258v71h258v146h88v-146h260v-71h-260z" />
    <glyph glyph-name="comma" unicode="," horiz-adv-x="354" 
d="M191 -69q-10 -20 -49 -20q-38 0 -38 29q0 7 3 13l58 112q11 21 41 21q18 0 31.5 -8.5t13.5 -21.5q0 -7 -3 -13z" />
    <glyph glyph-name="hyphen" unicode="-" horiz-adv-x="472" 
d="M39 254v20h407v-20h-407z" />
    <glyph glyph-name="hyphen" unicode="&#x2010;" horiz-adv-x="472" 
d="M39 254v20h407v-20h-407z" />
    <glyph glyph-name="period" unicode="." horiz-adv-x="282" 
d="M142 -2q-45 0 -45 26v35q0 26 45 26q43 0 43 -26v-35q0 -26 -43 -26z" />
    <glyph glyph-name="slash" unicode="/" horiz-adv-x="472" 
d="M47 0h-100l491 694h100z" />
    <glyph glyph-name="zero" unicode="0" horiz-adv-x="788" 
d="M636 46q-95 -58 -240 -58q-146 0 -242 58q-119 71 -119 204v158q0 133 119 204q98 59 242 59q146 0 240 -58q116 -71 116 -205v-158q0 -134 -116 -204zM664 408q0 91 -81 142q-76 47 -189 47q-108 0 -181 -41q-90 -50 -90 -148v-158q0 -91 82 -142q75 -46 189 -46
q115 0 188 45q82 50 82 143v158z" />
    <glyph glyph-name="one" unicode="1" horiz-adv-x="558" 
d="M360 0v541l-170 -95h-159l351 200h66v-646h-88z" />
    <glyph glyph-name="two" unicode="2" horiz-adv-x="788" 
d="M48 0q1 110 76 190q69 74 210 133l189 77q106 43 106 85q0 53 -76 78q-58 20 -144 20q-137 0 -196.5 -44.5t-59.5 -141.5h-89q0 154 114 214q86 46 223 46q115 0 194 -28q121 -44 121 -147q0 -92 -231 -182l-162 -66q-53 -26 -103 -68q-59 -50 -74 -92h612v-74h-710z" />
    <glyph glyph-name="three" unicode="3" horiz-adv-x="788" 
d="M401 -11q-143 0 -240 41q-136 59 -136 188v37h89v-50q0 -75 97 -113q75 -29 185 -29q102 0 178 26q99 34 99 99q0 120 -252 120h-92v74h94q231 0 231 103q0 53 -86 79q-64 19 -155 19q-146 0 -209 -42t-63 -134h-89q0 155 129 212q88 38 228 38q121 0 202 -26
q132 -42 132 -146q0 -96 -105 -139q122 -48 122 -158q0 -109 -133 -161q-96 -38 -226 -38z" />
    <glyph glyph-name="four" unicode="4" horiz-adv-x="788" 
d="M596 205v-205h-89v205h-519l321 442h102l-269 -368h365v369l89 -3v-366h174v-74h-174z" />
    <glyph glyph-name="five" unicode="5" horiz-adv-x="788" 
d="M389 -11q-144 0 -235 40q-131 58 -131 216h88q0 -62 21 -95.5t68 -54.5q73 -32 190 -32q112 0 184 34q89 42 89 125q0 82 -95 125q-77 35 -189 35q-164 0 -248 -91h-81l23 355h637v-74h-551l-10 -169q91 53 236 53q138 0 237 -48q129 -62 129 -185q0 -125 -126 -186
q-97 -48 -236 -48z" />
    <glyph glyph-name="six" unicode="6" horiz-adv-x="788" 
d="M648 407q0 56 -20 89q-18 30 -61 51q-70 35 -170 35q-96 0 -163 -30q-87 -38 -88 -117v-68q87 60 247 60q127 0 219 -45q117 -58 117 -172q0 -117 -122 -174q-91 -42 -217 -42q-128 0 -218 44q-118 57 -118 172v11l1 7v210q0 115 121 172q93 43 222 43q126 0 216 -43
q121 -59 121 -203h-87zM563 322q-68 34 -172 34q-102 0 -169 -32q-81 -39 -81 -114q0 -74 82 -113q67 -33 168 -33q96 0 163 30q88 38 88 116q0 74 -79 112z" />
    <glyph glyph-name="seven" unicode="7" horiz-adv-x="788" 
d="M302 0h-101l413 572h-555v74h709z" />
    <glyph glyph-name="eight" unicode="8" horiz-adv-x="811" 
d="M637 21q-93 -32 -231 -32t-233 33q-146 52 -146 172q0 114 145 163q-98 43 -98 121q0 107 129 151q81 28 203 28t204 -28q129 -45 129 -151q0 -78 -101 -121q147 -49 147 -165q0 -120 -148 -171zM406 583q-244 0 -244 -106q0 -39 79 -65q74 -24 167 -24q95 0 165 24
q77 26 77 67q0 104 -244 104zM408 314q-293 0 -293 -121q0 -72 103 -105q75 -25 188 -25t188 24q102 34 102 106q0 121 -288 121z" />
    <glyph glyph-name="nine" unicode="9" horiz-adv-x="788" 
d="M718 391v37q1 4 15 35v-264q0 -114 -122 -171q-92 -43 -221 -43q-125 0 -214 42q-122 58 -122 203h87q0 -57 19 -89t61 -52q69 -33 170 -33q100 0 168 32q82 39 83 114l1 86q-88 -59 -247 -59q-126 0 -216 42q-121 57 -121 174q0 114 119 172q93 45 220 45t219 -45
q118 -58 118 -172v-15zM568 558q-69 33 -171 33t-169 -32q-82 -39 -82 -114q0 -78 88 -116q67 -30 163 -30t163 30q88 38 88 116q0 74 -80 113z" />
    <glyph glyph-name="colon" unicode=":" horiz-adv-x="329" 
d="M166 333q-45 0 -45 37v58q0 37 45 37q37 0 44 -35v-60q0 -37 -44 -37zM166 -2q-45 0 -45 37v58q0 37 45 37q37 0 44 -35v-60q0 -37 -44 -37z" />
    <glyph glyph-name="semicolon" unicode=";" horiz-adv-x="339" 
d="M193 331q-45 0 -45 38v58q0 38 45 38q44 0 44 -38v-58q0 -38 -44 -38zM183 -65q-10 -25 -48 -25q-39 0 -39 35q0 8 3 15l58 139q11 26 41 26q17 0 31 -10.5t14 -25.5q0 -7 -3 -14z" />
    <glyph glyph-name="less" unicode="&#x3c;" horiz-adv-x="722" 
d="M35 210v61l640 170v-75l-478 -126l478 -126v-75z" />
    <glyph glyph-name="equal" unicode="=" horiz-adv-x="850" 
d="M37 253v60h776v-60h-776zM37 167v60h776v-60h-776z" />
    <glyph glyph-name="greater" unicode="&#x3e;" horiz-adv-x="722" 
d="M35 39v75l478 126l-478 126v75l640 -170v-61z" />
    <glyph glyph-name="question" unicode="?" 
d="M517 344q-128 -73 -128 -135v-50h-90v45q0 105 148 189q77 43 103 68.5t26 58.5q0 53 -76 79q-60 21 -144 21q-121 0 -179.5 -39.5t-72.5 -130.5l-84 33q25 127 136 175q82 36 202 36q105 0 185 -31q121 -45 121 -143q0 -94 -147 -176zM343 0q-44 0 -44 39v59q0 38 44 38
q45 0 45 -38v-59q0 -39 -45 -39z" />
    <glyph glyph-name="at" unicode="@" horiz-adv-x="1134" 
d="M847 28q-126 -39 -248 -39q-198 0 -353 78q-196 98 -196 278q0 176 192 273q152 77 347 77q176 0 314 -63q179 -82 179 -237q0 -100 -94 -187q-34 -31 -85 -53q-55 -24 -101 -24q-66 0 -71 54q-92 -66 -236 -66q-141 -1 -213 69q-51 50 -51 120q0 27 2 40q20 114 127 173
q89 51 216 52q148 1 215 -64l12 64h85q-6 29 -11 59q48 -2 58 -64q12 -79 -91 -185q5 -14 -28 -183l1 -1q-1 0 -1 2l-7 -3q-2 -5 -6 3q-1 -1 -1 -2q4 -6 1 -6q-2 0 -4 3q5 12 10 13q27 0 64 19q34 17 53 38q66 71 66 131q0 110 -136 172q-115 52 -262 52q-174 0 -303 -66
q-149 -77 -149 -215q0 -134 150 -211q130 -67 301 -67q109 0 214 33q123 38 182 106h107q-56 -72 -116 -113q-54 -36 -133 -60zM705 474q-51 28 -137 27q-105 -1 -177 -51q-78 -53 -78 -139q0 -62 56 -94q49 -28 129 -28q93 0 167 43q81 46 96 120q1 7 1 30q0 62 -57 92z
" />
    <glyph glyph-name="A" unicode="A" horiz-adv-x="859" 
d="M804 0l-131 204h-482l-134 -204h-104l448 678h71l433 -678h-101zM437 573l-197 -294h386z" />
    <glyph glyph-name="B" unicode="B" horiz-adv-x="867" 
d="M704 31q-89 -31 -219 -31h-449v678h466q116 0 197 -32q118 -47 118 -153q0 -86 -111 -135q141 -45 141 -163q0 -114 -143 -164zM653 581q-62 23 -154 23h-375v-215h374q89 0 151 23q80 29 80 85t-76 84zM672 290q-71 25 -177 25h-371v-241h377q99 0 169 25q90 31 90 95
q0 65 -88 96z" />
    <glyph glyph-name="C" unicode="C" horiz-adv-x="971" 
d="M870 505q-103 106 -327 106q-171 0 -285 -63q-131 -73 -131 -210q0 -136 125 -208q109 -63 276 -63q216 0 331 108l83 -37q-85 -78 -188 -113q-95 -32 -225 -32q-195 0 -326 73q-164 91 -164 268q0 183 170 276q136 75 334 75q134 0 229 -32q102 -34 181 -112z" />
    <glyph glyph-name="D" unicode="D" horiz-adv-x="918" 
d="M713 66q-134 -66 -339 -66h-327v678h378q200 0 319 -70q146 -87 146 -270t-177 -272zM693 546q-96 58 -269 58h-289v-530h243q180 0 288 54q136 67 136 210q0 142 -109 208z" />
    <glyph glyph-name="E" unicode="E" horiz-adv-x="761" 
d="M47 0v678h716v-74h-629v-215h557v-73h-557v-242h636v-74h-723z" />
    <glyph glyph-name="F" unicode="F" horiz-adv-x="682" 
d="M134 604v-215h497v-73h-497v-316h-87v678h667v-74h-580z" />
    <glyph glyph-name="G" unicode="G" horiz-adv-x="1023" 
d="M528 -7q-206 0 -339 70q-173 90 -173 274q0 182 168 274q134 74 334 74q154 0 263 -41q150 -55 199 -217h-92q-31 94 -118 138q-90 46 -250 46q-173 0 -286 -63q-130 -71 -130 -210q0 -143 135 -213q111 -58 289 -58q137 0 243 47q126 55 126 155v3h-392v74h475
q7 -45 7 -66q0 -151 -163 -228q-125 -59 -296 -59z" />
    <glyph glyph-name="H" unicode="H" horiz-adv-x="918" 
d="M783 0v316h-648v-316h-88v678h88v-289h648v289h88v-678h-88z" />
    <glyph glyph-name="I" unicode="I" horiz-adv-x="181" 
d="M47 0v678h88v-678h-88z" />
    <glyph glyph-name="J" unicode="J" horiz-adv-x="656" 
d="M301 -7q-137 0 -211 43q-82 47 -97 153h89q8 -63 56.5 -92.5t157.5 -29.5q131 0 177 37q41 33 41 104v470h88v-476q0 -209 -301 -209z" />
    <glyph glyph-name="K" unicode="K" horiz-adv-x="904" 
d="M830 0l-509 341l-186 -100v-241h-88v678h88v-349l663 349h167l-563 -296l569 -382h-141z" />
    <glyph glyph-name="L" unicode="L" horiz-adv-x="682" 
d="M47 0v678h88v-604h578v-74h-666z" />
    <glyph glyph-name="M" unicode="M" horiz-adv-x="1106" 
d="M969 0v539l-385 -539h-63l-386 539v-539h-88v678h92l413 -578l415 578h90v-678h-88z" />
    <glyph glyph-name="N" unicode="N" horiz-adv-x="918" 
d="M787 0l-652 566v-566h-88v678h84l328 -285l324 -278v563h88v-678h-84z" />
    <glyph glyph-name="O" unicode="O" horiz-adv-x="1022" 
d="M843 66q-130 -73 -331 -73t-331 73q-164 91 -164 273q0 180 166 268q128 68 329 68t329 -68q166 -88 166 -268q0 -182 -164 -273zM793 544q-106 57 -281 57q-166 0 -271 -53q-135 -67 -135 -209q0 -139 125 -210q110 -62 281 -62q167 0 273 56q134 71 134 216
q0 138 -126 205z" />
    <glyph glyph-name="P" unicode="P" horiz-adv-x="838" 
d="M467 283h-332v-283h-88v678h435q343 0 343 -200q0 -110 -132 -160q-93 -35 -226 -35zM490 604h-355v-247h356q96 0 163 27q81 33 81 93q0 127 -245 127z" />
    <glyph glyph-name="Q" unicode="Q" horiz-adv-x="1022" 
d="M895 100q-70 -57 -173 -85q27 -6 60 -6h154v-75h-154q-114 0 -183 59q-42 -5 -87 -5q-201 0 -331 74q-164 92 -164 274t166 271q128 68 329 68t329 -68q166 -89 166 -271q0 -146 -112 -236zM793 543q-106 57 -281 57q-166 0 -271 -53q-135 -68 -135 -211q0 -112 86 -181
q30 45 96 69q54 19 114 19q85 0 151 -35q82 -44 82 -121q0 -7 2 -14q127 22 200 85q82 69 82 178q0 140 -126 207zM549 88q0 38 -48 61q-42 20 -99 20q-44 0 -84 -14q-44 -16 -57 -43q103 -49 251 -49q20 0 40 1q-3 12 -3 24z" />
    <glyph glyph-name="R" unicode="R" horiz-adv-x="867" 
d="M707 331q109 -47 109 -151v-180h-89v177q0 113 -241 113h-351v-290h-88v678h451q331 0 331 -185q0 -112 -122 -162zM501 604h-366v-238h344q102 0 172 24q90 33 90 100q0 114 -240 114z" />
    <glyph glyph-name="S" unicode="S" horiz-adv-x="867" 
d="M688 28q-101 -35 -243 -35q-161 0 -264 36q-162 57 -162 195v38h88v-34q0 -161 340 -161q109 0 187 22q108 30 108 93q0 43 -36 65q-29 18 -99 32q-38 8 -192 31q-175 26 -236 48q-131 48 -131 146q0 181 372 181q188 0 284 -52q106 -58 109 -186h-88q-5 60 -29.5 92.5
t-75.5 48.5q-67 23 -200 23q-283 0 -283 -107q0 -49 71 -75q54 -20 186 -37q246 -31 329 -67q108 -45 108 -146q0 -102 -143 -151z" />
    <glyph glyph-name="T" unicode="T" horiz-adv-x="736" 
d="M412 604v-604h-88v604h-350v74h788v-74h-350z" />
    <glyph glyph-name="U" unicode="U" horiz-adv-x="896" 
d="M715 38q-95 -45 -267 -45q-401 0 -401 266v419h88v-418q0 -193 313 -193q312 0 312 189v422h88v-421q0 -155 -133 -219z" />
    <glyph glyph-name="V" unicode="V" horiz-adv-x="848" 
d="M462 0h-65l-432 678h98l368 -574l355 574h99z" />
    <glyph glyph-name="W" unicode="W" horiz-adv-x="1309" 
d="M934 0h-65l-212 342l-205 -342h-65l-417 678h97l352 -572l188 317l-155 255h97l353 -572l340 572h97z" />
    <glyph glyph-name="X" unicode="X" horiz-adv-x="815" 
d="M768 0l-358 296l-361 -296h-126l422 348l-403 330h130l338 -279l342 279h128l-403 -330l416 -348h-125z" />
    <glyph glyph-name="Y" unicode="Y" horiz-adv-x="845" 
d="M467 320v-320h-88v320l-463 358h130l377 -290l377 290h129z" />
    <glyph glyph-name="Z" unicode="Z" horiz-adv-x="845" 
d="M20 0v65l657 539h-618v74h757v-64l-658 -540h668v-74h-806z" />
    <glyph glyph-name="bracketleft" unicode="[" horiz-adv-x="315" 
d="M106 -168v902h220v-75h-131v-752h131v-75h-220z" />
    <glyph glyph-name="backslash" unicode="\" horiz-adv-x="472" 
d="M428 0l-496 694h102l494 -694h-100z" />
    <glyph glyph-name="bracketright" unicode="]" horiz-adv-x="315" 
d="M207 -168h-218v75h130l1 18l-2 734h-129v75h219z" />
    <glyph glyph-name="asciicircum" unicode="^" horiz-adv-x="402" 
d="M273 511l-75 64l-73 -64h-110l155 135h55l163 -135h-115z" />
    <glyph glyph-name="underscore" unicode="_" 
d="M-30 -119v48h769v-48h-769z" />
    <glyph glyph-name="grave" unicode="`" horiz-adv-x="261" 
d="M229 533q-22 -7 -48 3l-155 81q-18 10 -18 23q0 12 14 21.5t32 9.5q15 0 29 -7l153 -81q18 -9 18 -22q0 -19 -25 -28z" />
    <glyph glyph-name="a" unicode="a" horiz-adv-x="761" 
d="M615 -1v71q-93 -81 -264 -81q-136 0 -230 58q-112 68 -112 196q0 129 111 198q94 59 236 59q168 0 259 -78v76h89v-499h-89zM538 384q-70 43 -188 43q-109 0 -178 -46q-76 -50 -76 -138t76 -137q68 -44 178 -44q109 0 185 46q80 49 80 135q0 94 -77 141z" />
    <glyph glyph-name="b" unicode="b" horiz-adv-x="761" 
d="M630 47q-91 -57 -236 -57q-162 0 -257 82v-73h-89v679h89v-243q93 80 259 80q145 0 236 -60q108 -72 108 -205q0 -134 -110 -203zM401 440q-119 0 -187 -44q-77 -49 -77 -148q0 -88 81 -138q75 -46 184 -46q110 0 177 45q74 50 74 142q0 42 -14 75q-27 61 -101 91
q-59 23 -137 23z" />
    <glyph glyph-name="c" unicode="c" 
d="M553 20q-80 -31 -183 -31q-142 0 -237 53q-118 67 -118 194q0 137 120 206q99 58 250 58q95 0 168 -28q97 -37 137 -139l-82 -29q-25 66 -77.5 94.5t-148.5 28.5q-120 0 -195 -45q-84 -50 -84 -146q0 -94 91 -139q70 -35 175 -35q83 0 147 24q73 29 96 110l86 -26
q-39 -110 -145 -150z" />
    <glyph glyph-name="d" unicode="d" horiz-adv-x="761" 
d="M615 -1v73q-93 -83 -264 -83q-137 0 -231 60q-111 71 -111 201q0 133 111 204q94 61 236 61q168 0 259 -80v243h89v-679h-89zM538 396q-70 44 -188 44q-108 0 -178 -47q-76 -52 -76 -143t76 -141q69 -46 178 -46t184 48q81 51 81 139q0 97 -77 146z" />
    <glyph glyph-name="e" unicode="e" 
d="M94 213q21 -151 260 -151q191 0 253 112h93q-54 -120 -163 -157q-80 -28 -186 -28q-148 0 -238 55q-108 65 -108 199q0 130 117 199q97 58 236 58t232 -50q119 -64 119 -189v-47zM358 427q-97 0 -166 -34q-77 -37 -95 -108h515q-13 76 -99 113q-66 29 -155 29z" />
    <glyph glyph-name="f" unicode="f" horiz-adv-x="360" 
d="M196 471v-16h150v-75h-150v-381h-88v381h-98v75h98v16q0 195 362 195v-73q-274 0 -274 -122z" />
    <glyph glyph-name="g" unicode="g" horiz-adv-x="736" 
d="M359 -179q-109 0 -185 28q-116 42 -125 170h87q8 -64 57 -93q53 -31 167 -31q242 0 242 135v37q-96 -75 -255 -75q-136 0 -227 57q-110 69 -110 195q0 130 114 199q93 57 232 57q156 0 246 -76v65h88v-460q0 -208 -331 -208zM354 426q-107 0 -178 -46q-77 -49 -77 -135
q0 -87 73 -135q66 -43 172 -43q108 0 178 41q80 48 80 134q0 78 -61 126q-73 58 -187 58z" />
    <glyph glyph-name="h" unicode="h" 
d="M569 0v324q0 61 -62 91q-53 26 -136 26q-99 0 -162 -39q-72 -43 -72 -122v-280h-89v678h89v-228q82 65 233 65q108 0 183 -34q105 -47 105 -148v-333h-89z" />
    <glyph glyph-name="i" unicode="i" horiz-adv-x="184" 
d="M90 553q-26 0 -42 29v77q20 28 42 28q18 0 47 -24v-86q-26 -24 -47 -24zM48 0v504h89v-504h-89z" />
    <glyph glyph-name="j" unicode="j" horiz-adv-x="184" 
d="M90 551q-26 0 -42 29v79q20 28 42 28q18 0 47 -24v-88q-26 -24 -47 -24zM-230 -179v74q150 0 216 38q58 33 58 101v467h89v-468q0 -212 -363 -212z" />
    <glyph glyph-name="k" unicode="k" horiz-adv-x="718" 
d="M357 300l404 -300h-135l-348 259l-141 -70v-189h-89v678h89v-402l453 229l181 -3z" />
    <glyph glyph-name="l" unicode="l" horiz-adv-x="184" 
d="M48 0v678h89v-678h-89z" />
    <glyph glyph-name="m" unicode="m" horiz-adv-x="1103" 
d="M965 0v315q0 112 -166 112q-84 0 -140 -29q-63 -34 -63 -96v-302h-89v315q0 112 -170 112q-88 0 -144 -41t-56 -114v-272h-89v489h89v-49q78 60 214 60q147 0 213 -78q70 78 232 78q257 0 257 -176v-324h-88z" />
    <glyph glyph-name="n" unicode="n" 
d="M569 0v315q0 58 -62 87q-53 25 -136 25q-99 0 -162 -37q-72 -42 -72 -118v-272h-89v489h89v-52q82 63 233 63q107 0 183 -33q105 -45 105 -143v-324h-89z" />
    <glyph glyph-name="o" unicode="o" horiz-adv-x="736" 
d="M608 45q-97 -56 -241 -56q-143 0 -241 57q-117 68 -117 198q0 129 120 199q98 57 241 57q144 0 240 -57q118 -70 118 -199q0 -130 -120 -199zM559 384q-73 43 -190 43q-116 0 -191 -44q-81 -49 -81 -139q0 -89 82 -138q75 -44 190 -44q114 0 189 44q82 49 82 138
q0 91 -81 140z" />
    <glyph glyph-name="p" unicode="p" horiz-adv-x="761" 
d="M632 35q-91 -59 -236 -59q-166 0 -259 80v-224h-89v657h89v-68q92 79 257 79q145 0 236 -58q110 -70 110 -203q0 -134 -108 -204zM580 379q-68 47 -178 47q-111 0 -185 -46q-80 -50 -80 -139q0 -99 76 -148q68 -43 188 -43q111 0 178 46q74 50 74 142q0 91 -73 141z" />
    <glyph glyph-name="q" unicode="q" horiz-adv-x="761" 
d="M614 -168v220q-88 -76 -266 -76q-137 0 -230 63q-109 73 -109 200q0 129 112 200q95 61 233 61q167 0 260 -81v70h88v-657h-88zM534 379q-74 47 -187 47q-109 0 -177 -48q-73 -50 -73 -140q0 -89 74 -140q70 -48 177 -48q120 0 188 42q79 49 79 146q0 91 -81 141z" />
    <glyph glyph-name="r" unicode="r" horiz-adv-x="429" 
d="M137 199v-199h-89v489h89v-65q23 19 55 34q89 42 232 42v-73q-153 0 -220 -60t-67 -168z" />
    <glyph glyph-name="s" unicode="s" horiz-adv-x="656" 
d="M504 9q-68 -22 -168 -22q-311 0 -311 217h91q0 -75 50.5 -108.5t170.5 -33.5q189 0 189 73q0 44 -125 65l-133 14q-95 12 -145 37q-69 36 -69 101q0 82 100 121q70 28 159 28q300 0 300 -197h-92q0 64 -43 92q-47 30 -158 30q-65 0 -115 -17q-60 -21 -60 -57
q0 -44 122 -59l143 -18q207 -25 207 -140q0 -89 -113 -126z" />
    <glyph glyph-name="t" unicode="t" horiz-adv-x="355" 
d="M220 400v-400h-85l-3 400h-134v74h134v140h88v-140h137v-74h-137z" />
    <glyph glyph-name="u" unicode="u" 
d="M569 -1v53q-82 -63 -232 -63q-113 0 -188 35q-101 48 -101 151v313h89v-312q0 -114 200 -114q106 0 165 37q67 42 67 126v263h89v-489h-89z" />
    <glyph glyph-name="v" unicode="v" horiz-adv-x="636" 
d="M365 0h-68l-340 488h107l266 -392l247 392h101z" />
    <glyph glyph-name="w" unicode="w" horiz-adv-x="1041" 
d="M760 0h-71l-162 246l-151 -246h-69l-323 488h105l252 -390l134 227l-109 163h106l251 -390l232 390h100z" />
    <glyph glyph-name="x" unicode="x" horiz-adv-x="630" 
d="M579 0l-264 203l-264 -203h-130l330 252l-301 236h130l235 -187l240 187h126l-301 -236l328 -252h-129z" />
    <glyph glyph-name="y" unicode="y" 
d="M325 -179q-108 0 -184 28q-116 42 -124 170h87q8 -65 57 -93q53 -31 167 -31q241 0 241 135v10q-82 -65 -232 -65q-113 0 -188 36q-101 49 -101 155v322h89v-321q0 -118 200 -118q106 0 165 38q67 44 67 130v271h89v-459q0 -208 -333 -208z" />
    <glyph glyph-name="z" unicode="z" horiz-adv-x="639" 
d="M8 0v62l457 353h-418v73h561v-61l-458 -355h481v-72h-623z" />
    <glyph glyph-name="braceleft" unicode="{" horiz-adv-x="472" 
d="M328 -168q-135 0 -135 118v214q0 45 -16 58q-11 9 -87 32v59q34 10 46 14q38 12 44 20q13 15 13 55v214q0 118 135 118h45v-75h-44q-32 0 -41 -15q-7 -11 -7 -51v-193q0 -86 -53 -117q53 -29 53 -117v-192q0 -41 7 -52q9 -15 41 -15h44v-75h-45z" />
    <glyph glyph-name="bar" unicode="|" horiz-adv-x="315" 
d="M113 -32v738h88v-738h-88z" />
    <glyph glyph-name="braceright" unicode="}" horiz-adv-x="472" 
d="M283 219q-13 -15 -13 -55v-214q0 -118 -135 -118h-45v75h44q32 0 41 15q7 11 7 52v192q0 88 53 117q-53 31 -53 117v193q0 40 -7 51q-9 15 -41 15h-44v75h45q135 0 135 -118v-214q0 -45 16 -58q11 -9 87 -31v-59q-34 -10 -46 -14q-38 -13 -44 -21z" />
    <glyph glyph-name="asciitilde" unicode="~" horiz-adv-x="740" 
d="M628 371q-50 -20 -115 -20q-50 0 -154 23q-95 21 -132 21q-39 0 -57 -9.5t-27 -35.5h-104q21 65 81 87q49 18 109 18q50 0 152 -24q94 -22 132 -22q32 0 56 10q19 8 28 37h104q-19 -62 -73 -85z" />
    <glyph glyph-name="exclamdown" unicode="&#xa1;" horiz-adv-x="262" 
d="M132 447q-45 0 -45 38v59q0 39 45 39q44 0 44 -39v-59q0 -38 -44 -38zM86 -95v519h88v-519h-88z" />
    <glyph glyph-name="cent" unicode="&#xa2;" 
d="M553 18q-80 -31 -183 -31q-83 0 -150 18l-30 -41h-101l53 73q-127 69 -127 200q0 139 120 209q99 59 250 59q46 0 87 -7l38 53h102l-55 -76q93 -37 134 -140l-83 -28q-30 79 -97 104l-244 -341q46 -10 102 -10q83 0 146 25q74 29 97 111l86 -26q-39 -112 -145 -152z
M382 431q-120 0 -195 -45q-84 -52 -84 -149q0 -89 84 -137l237 330q-20 1 -42 1z" />
    <glyph glyph-name="sterling" unicode="&#x20ac;" horiz-adv-x="788" 
d="M481 -12q-146 0 -242 58q-110 65 -118 185h-108l17 74h90v42h-79l25 75h54q6 123 119 190q98 59 242 59q157 0 288 -95l-72 -46q-93 67 -218 67q-115 0 -190 -46.5t-81 -128.5h406l-21 -75h-385v-42h370l-17 -74h-352q8 -78 82 -123.5t188 -45.5q125 0 218 66l74 -44
q-133 -96 -290 -96z" />
    <glyph glyph-name="currency" unicode="&#xa4;" horiz-adv-x="788" 
d="M649 191l-136 78q-58 -25 -132 -25t-133 26l-137 -79l-76 42l143 82q-30 32 -30 72q0 41 31 74l-144 83l76 42l139 -80q58 25 129 25q74 0 131 -25l139 80l76 -42l-144 -83q32 -33 32 -73q0 -41 -31 -73l143 -82zM381 460q-56 0 -99 -18q-47 -21 -47 -54q0 -34 47 -55
q43 -19 99 -19q57 0 99 19q48 21 48 54t-45.5 53t-101.5 20z" />
    <glyph glyph-name="yen" unicode="&#xa5;" horiz-adv-x="871" 
d="M481 320v-11h286v-74h-286v-43h286v-74h-286v-118h-88v118h-287v74h287v43h-287v74h287v11l-464 358h131l376 -290l378 290h129z" />
    <glyph glyph-name="brokenbar" unicode="&#xa6;" horiz-adv-x="315" 
d="M113 348v348h88v-348h-88zM113 -23v348h88v-348h-88z" />
    <glyph glyph-name="section" unicode="&#xa7;" horiz-adv-x="788" 
d="M587 148q75 -37 75 -103q0 -83 -100 -124q-70 -29 -158 -29q-298 0 -298 200h89q0 -66 44 -94q46 -31 158 -31q68 0 116 17q60 21 60 61q0 45 -96 59l-208 30q-54 7 -107 43q-65 45 -58 106q10 76 96 111q-76 37 -76 104q0 84 100 124q70 29 158 29q299 0 299 -201h-89
q0 66 -45 96t-157 30q-66 0 -117 -18q-61 -22 -61 -60q0 -33 62 -50q50 -13 173 -27q238 -28 238 -148q0 -86 -98 -125zM379 348q-153 0 -184 -57v-8q0 -42 72 -66q63 -22 139 -22q185 0 190 74q-30 79 -217 79z" />
    <glyph glyph-name="dieresis" unicode="&#xa8;" horiz-adv-x="289" 
d="M223 547q-44 0 -44 25v27q0 25 44 25q45 0 45 -25v-27q0 -25 -45 -25zM67 547q-44 0 -44 25v27q0 25 44 25t44 -25v-27q0 -25 -44 -25z" />
    <glyph glyph-name="copyright" unicode="&#xa9;" horiz-adv-x="756" 
d="M385 236q-129 0 -228 45q-129 59 -129 172q0 111 128 172q101 47 226 47t227 -47q130 -61 130 -171q0 -111 -128 -171q-101 -47 -226 -47zM561 562q-77 36 -176 36q-100 0 -179 -36q-87 -40 -87 -108t87 -109q77 -36 176 -36t178 36q88 41 88 108q0 69 -87 109zM396 303
q-85 0 -147 30q-81 40 -81 118t79 116q60 28 143 28t131 -29q54 -33 72 -109h-92q-11 35 -35.5 50t-76.5 15q-55 0 -90 -17q-40 -19 -40 -54q0 -36 42 -56q38 -18 95 -18q77 0 108 68h99q-36 -78 -85.5 -110t-121.5 -32z" />
    <glyph glyph-name="ordfeminine" unicode="&#xaa;" horiz-adv-x="510" 
d="M391 348v22q-55 -28 -139 -28q-90 0 -151 36q-73 43 -73 122q0 81 74 123q62 35 153 35q83 0 136 -27v26h91v-309h-91zM252 587q-60 0 -95 -22q-38 -23 -38 -65t36 -64.5t97 -22.5q59 0 99 23.5t40 63.5q0 44 -37 65.5t-102 21.5z" />
    <glyph glyph-name="guillemotleft" unicode="&#xab;" horiz-adv-x="528" 
d="M222 250v48l262 111v-75l-137 -60l137 -60v-73zM66 250v48l261 111v-75l-137 -60l137 -60v-73z" />
    <glyph glyph-name="logicalnot" unicode="&#xac;" horiz-adv-x="813" 
d="M671 134v106h-635v62h723v-168h-88z" />
    <glyph glyph-name="registered" unicode="&#xae;" horiz-adv-x="733" 
d="M370 236q-126 0 -226 46q-129 60 -129 171t128 172q101 47 226 47q126 0 226 -47q129 -60 129 -171q0 -113 -127 -172q-99 -46 -227 -46zM547 563q-75 35 -177 35q-101 0 -178 -35q-86 -40 -86 -109q0 -70 86 -110q75 -35 177 -35q100 0 177 35q87 41 87 109
q0 70 -86 110zM525 447q19 -20 19 -50v-86h-92v85q0 15 -51 15h-89v-100h-91v281h184q143 0 143 -88q0 -34 -23 -57zM405 517h-93v-32h86q59 0 59 18q0 14 -52 14z" />
    <glyph glyph-name="degree" unicode="&#xb0;" horiz-adv-x="567" 
d="M427 414q-65 -29 -144 -29q-80 0 -145 28q-87 38 -87 107t88 107q64 28 143 28q81 0 144 -27q89 -37 89 -107q0 -69 -88 -107zM283 588q-56 0 -98 -17q-47 -20 -47 -50q0 -31 47 -51q42 -18 98 -18q66 0 111 23q35 18 35 45q0 31 -44 49.5t-102 18.5z" />
    <glyph glyph-name="plusminus" unicode="&#xb1;" horiz-adv-x="850" 
d="M469 211v-153h-89v153h-257v72h257v150h89v-150h259v-72h-259zM124 -3v73h605v-73h-605z" />
    <glyph glyph-name="twosuperior" unicode="&#xb2;" horiz-adv-x="529" 
d="M19 256q0 79 55 133q49 48 150 85q35 12 107 39q62 25 62 35q0 41 -126 41q-82 0 -114.5 -24.5t-32.5 -81.5h-92q0 179 234 179q222 0 222 -116q0 -58 -111 -99l-118 -43q-98 -36 -130 -76h386v-72h-492z" />
    <glyph glyph-name="threesuperior" unicode="&#xb3;" horiz-adv-x="575" 
d="M441 273q-65 -21 -147 -21q-95 0 -162 24q-101 37 -101 121v37h93v-45q0 -64 165 -64q163 0 163 56q0 53 -146 53h-78v73h80q133 0 133 42q0 40 -140 40q-90 0 -124.5 -23.5t-34.5 -77.5h-92q0 174 250 174q80 0 145 -22q89 -31 89 -91q0 -50 -47 -78q57 -32 57 -90
q0 -76 -103 -108z" />
    <glyph glyph-name="acute" unicode="&#xb4;" horiz-adv-x="286" 
d="M95 536q-14 -7 -29 -7q-18 0 -32 9.5t-14 21.5q0 13 18 23l153 82q14 8 30 8q19 0 32.5 -9.5t13.5 -21.5q0 -14 -19 -24z" />
    <glyph glyph-name="mu1" unicode="&#xb5;" 
d="M529 0q-9 -3 -9 -4q0 -17 109 -17v-77q-79 0 -126 14q-66 20 -77 62q-28 -3 -57 -3q-151 0 -232 65v-211h-89v659h89v-271q0 -86 67 -129q59 -39 165 -39q200 0 200 118v321h89v-322q0 -119 -129 -166z" />
    <glyph glyph-name="paragraph" unicode="&#xb6;" horiz-adv-x="670" 
d="M528 -133v736h-57v-736h-88v357q-122 2 -215 53q-114 63 -114 174q0 115 128 178q102 50 230 50q6 0 11 -1h193v-811h-88z" />
    <glyph glyph-name="cedilla" unicode="&#xb8;" horiz-adv-x="350" 
d="M166 -174q-53 0 -174 20l53 57q75 -14 117 -14q79 0 79 13q0 2 -53 4q-36 2 -80 -11v41l13 73h85l-2 -39q131 -3 131 -71q0 -73 -169 -73z" />
    <glyph glyph-name="onesuperior" unicode="&#xb9;" horiz-adv-x="387" 
d="M217 260v296l-112 -46h-194l334 143h67v-393h-95z" />
    <glyph glyph-name="ordmasculine" unicode="&#xba;" horiz-adv-x="558" 
d="M277 350q-91 0 -158 32q-87 41 -87 121q0 82 89 122q67 31 160 31q91 0 159 -32q87 -41 87 -121q0 -82 -89 -122q-68 -31 -161 -31zM278 589q-66 0 -111 -21q-49 -23 -49 -65q0 -43 49 -66q43 -20 111 -20t113 20q50 23 50 66q0 42 -47 64t-116 22z" />
    <glyph glyph-name="guillemotright" unicode="&#xbb;" horiz-adv-x="514" 
d="M222 141v73l137 60l-137 60v75l262 -111v-48zM66 141v73l137 60l-137 60v75l261 -111v-48z" />
    <glyph glyph-name="onequarter" unicode="&#xbc;" horiz-adv-x="1102" 
d="M926 126v-126h-87v126h-388l255 296h105l-192 -225h220v226l87 -3v-223h125v-71h-125zM316 0h-101l490 694h100zM248 241v318l-115 -51h-182l321 147h64v-414h-88z" />
    <glyph glyph-name="onehalf" unicode="&#xbd;" horiz-adv-x="1084" 
d="M560 0q3 82 54 137q46 49 140 85q38 13 116 44q65 29 65 42q0 46 -128 46q-82 0 -115.5 -26t-33.5 -87h-86q1 185 230 185q218 0 218 -120q0 -60 -102 -99l-120 -49q-106 -43 -137 -86h386v-72h-487zM301 0h-101l491 694h101zM233 241v317l-114 -50h-184l323 147h64v-414
h-89z" />
    <glyph glyph-name="threequarters" unicode="&#xbe;" horiz-adv-x="1223" 
d="M1049 126v-126h-87v126h-388l256 296h105l-193 -225h220v226l87 -3v-223h124v-71h-124zM439 0h-101l491 694h100zM455 255q-64 -21 -146 -21q-259 0 -259 151v36h85v-45q0 -70 170 -70q167 0 167 61q0 60 -151 60h-74v71h76q137 0 137 47q0 46 -144 46
q-90 0 -125.5 -24.5t-37.5 -81.5h-84q2 178 246 178q80 0 141 -21q90 -30 90 -97q0 -52 -53 -82q65 -34 65 -96q0 -78 -103 -112z" />
    <glyph glyph-name="questiondown" unicode="&#xbf;" 
d="M346 463q-44 0 -44 38v59q0 39 44 39t44 -39v-59q0 -38 -44 -38zM533 -59q-81 -36 -201 -36q-108 0 -189 31q-119 45 -119 143q0 66 72 124l133 90q72 51 72 98v50h89v-46q0 -104 -148 -188q-79 -46 -104.5 -70.5t-25.5 -57.5q0 -52 77 -79q59 -21 144 -21
q121 0 179.5 40t72.5 133l83 -37q-24 -125 -135 -174z" />
    <glyph glyph-name="Agrave" unicode="&#xc0;" horiz-adv-x="913" 
d="M558 672q-25 -12 -51 4l-154 116q-16 12 -16 28t14 27t30 11t30 -10l154 -115q17 -12 17 -28q0 -22 -24 -33zM831 0l-131 208h-482l-134 -208h-104l448 690h71l433 -690h-101zM464 583l-197 -300h386z" />
    <glyph glyph-name="Aacute" unicode="&#xc1;" horiz-adv-x="913" 
d="M412 679q-13 -11 -30 -11q-18 0 -32 12t-14 27q0 16 17 28l154 115q14 11 31 11t30.5 -11.5t13.5 -27.5t-17 -28zM831 0l-131 208h-482l-134 -208h-104l448 690h71l433 -690h-101zM464 583l-197 -300h386z" />
    <glyph glyph-name="Acircumflex" unicode="&#xc2;" horiz-adv-x="913" 
d="M562 664l-104 96l-104 -96h-113l191 183h52l195 -183h-117zM831 0l-131 208h-482l-134 -208h-104l448 689h71l433 -689h-101zM464 583l-197 -300h386z" />
    <glyph glyph-name="Atilde" unicode="&#xc3;" horiz-adv-x="913" 
d="M636 696q-36 -21 -76 -21q-33 0 -104 28q-61 23 -79 23q-15 0 -26 -8t-16 -59l-80 37q0 62 50 87q36 18 74 18q32 0 103 -27q60 -24 78 -24q15 0 29 10q10 6 12 56l83 -33q-7 -63 -48 -87zM831 0l-131 207h-482l-134 -207h-104l448 687h71l433 -687h-101zM464 581
l-197 -299h386z" />
    <glyph glyph-name="Adieresis" unicode="&#xc4;" horiz-adv-x="913" 
d="M537 670q-43 0 -43 39v51q0 39 43 39q45 0 45 -39v-51q0 -39 -45 -39zM382 670q-45 0 -45 39v51q0 39 45 39q44 0 44 -39v-51q0 -39 -44 -39zM831 0l-131 207h-482l-134 -207h-104l448 687h71l433 -687h-101zM464 580l-197 -298h386z" />
    <glyph glyph-name="Aring" unicode="&#xc5;" horiz-adv-x="913" 
d="M458 679q-47 0 -85 20q-51 27 -51 77t51 77q38 20 85 20t85 -20q50 -27 50 -77q0 -47 -46 -74q-38 -23 -89 -23zM831 0l-131 208h-482l-134 -208h-104l448 691h71l433 -691h-101zM493 788q-15 8 -35 8t-32.5 -6.5t-12.5 -13.5t12.5 -13.5t32.5 -6.5t32.5 6.5t12.5 13.5
t-10 12zM464 584l-197 -300h386z" />
    <glyph glyph-name="AE" unicode="&#xc6;" horiz-adv-x="1454" 
d="M766 0v316h-330l-409 -316h-129l879 678h638v-74h-559v-214h62v-1h426v-73h-488l2 -242h564v-74h-656zM533 390h233l2 180z" />
    <glyph glyph-name="Ccedilla" unicode="&#xc7;" horiz-adv-x="971" 
d="M870 502q-103 108 -327 108q-171 0 -285 -64q-131 -74 -131 -214q0 -138 125 -211q109 -64 276 -64q216 0 331 109l83 -37q-85 -79 -188 -115q-95 -32 -225 -32q-195 0 -326 74q-164 92 -164 273q0 185 168 279q137 77 336 77q134 0 229 -32q102 -35 180 -114zM505 -174
q-53 0 -177 25l56 68q77 -18 117 -18q73 0 78 19q0 6 -52 9q-36 2 -80 -15v49l13 91h85l-2 -50q131 -3 131 -88q0 -90 -169 -90z" />
    <glyph glyph-name="Egrave" unicode="&#xc8;" horiz-adv-x="761" 
d="M481 663q-29 -14 -54 5l-152 113q-17 13 -17 32q0 20 22 30q11 6 24 6q16 0 29 -10l153 -115q17 -12 17 -29q0 -21 -22 -32zM47 0v689h716v-75h-629v-218h557v-74h-557v-247h636v-75h-723z" />
    <glyph glyph-name="Eacute" unicode="&#xc9;" horiz-adv-x="761" 
d="M334 668q-14 -11 -30 -11q-19 0 -32.5 12t-13.5 27q0 16 17 28l154 115q13 10 29 10q18 0 31.5 -11.5t13.5 -26.5q0 -17 -17 -29zM47 0v690h716v-76h-629v-218h557v-74h-557v-247h636v-75h-723z" />
    <glyph glyph-name="Ecircumflex" unicode="&#xca;" horiz-adv-x="761" 
d="M482 674l-104 96l-104 -96h-112l189 183h54l197 -183h-120zM47 0v690h716v-75h-629v-219h557v-74h-557v-247h636v-75h-723z" />
    <glyph glyph-name="Edieresis" unicode="&#xcb;" horiz-adv-x="761" 
d="M459 678q-45 0 -45 39v51q0 39 45 39q43 0 43 -39v-51q0 -39 -43 -39zM302 678q-43 0 -43 39v51q0 39 43 39q45 0 45 -39v-51q0 -39 -45 -39zM47 0v687h716v-75h-629v-217h557v-75h-557v-245h636v-75h-723z" />
    <glyph glyph-name="Igrave" unicode="&#xcc;" horiz-adv-x="181" 
d="M191 678q-29 -14 -54 5l-152 114q-17 12 -17 29q0 15 13.5 27t32.5 12q16 0 31 -11l152 -115q16 -12 16 -30q0 -20 -22 -31zM47 0v690h88v-690h-88z" />
    <glyph glyph-name="Iacute" unicode="&#xcd;" horiz-adv-x="181" 
d="M45 679q-14 -11 -31 -11q-19 0 -32.5 11.5t-13.5 27.5t16 28l152 115q15 11 32 11q18 0 31.5 -11.5t13.5 -26.5q0 -17 -16 -29zM47 0v690h88v-690h-88z" />
    <glyph glyph-name="Icircumflex" unicode="&#xce;" horiz-adv-x="181" 
d="M193 670l-104 97l-105 -97h-113l191 183h53l197 -183h-119zM47 0v690h88v-690h-88z" />
    <glyph glyph-name="Idieresis" unicode="&#xcf;" horiz-adv-x="181" 
d="M169 685q-44 0 -44 40v51q0 38 44 38q37 0 45 -35v-54q0 -40 -45 -40zM13 685q-46 0 -46 40v51q0 38 46 38q40 0 44 -36v-53q0 -40 -44 -40zM47 0v688h88v-688h-88z" />
    <glyph glyph-name="Eth" unicode="&#xd0;" horiz-adv-x="918" 
d="M713 66q-134 -66 -339 -66h-327v302h-50v75h50v301h378q200 0 319 -70q146 -87 146 -270t-177 -272zM693 546q-96 58 -269 58h-289v-227h268v-75h-268v-228h243q180 0 288 54q136 67 136 210q0 142 -109 208z" />
    <glyph glyph-name="Ntilde" unicode="&#xd1;" horiz-adv-x="918" 
d="M625 689q-34 -20 -74 -20q-33 0 -105 28q-61 23 -79 23q-14 0 -25.5 -8t-13.5 -59l-83 37q0 60 51 86q37 19 73 19q31 0 103 -27q61 -24 79 -24q14 0 28 10q10 7 15 54l81 -30q-7 -63 -50 -89zM787 0l-652 573v-573h-88v687h84l328 -289l324 -282v571h88v-687h-84z" />
    <glyph glyph-name="Ograve" unicode="&#xd2;" horiz-adv-x="1022" 
d="M611 676q-28 -13 -51 5l-156 115q-14 13 -14 28q0 16 13.5 27.5t31.5 11.5q16 0 31 -11l152 -115q16 -12 16 -31q0 -20 -23 -30zM843 67q-130 -74 -331 -74t-331 74q-164 93 -164 278q0 183 166 273q128 69 329 69t329 -69q166 -90 166 -273q0 -185 -164 -278zM793 554
q-106 58 -281 58q-166 0 -271 -54q-135 -69 -135 -213q0 -141 125 -214q110 -63 281 -63q170 0 277 59q130 72 130 218q0 141 -126 209z" />
    <glyph glyph-name="Oacute" unicode="&#xd3;" horiz-adv-x="1022" 
d="M463 685q-13 -10 -30 -10q-20 0 -34 13q-10 11 -10 23q0 18 16 30l152 115q15 11 32 11q18 0 32 -11.5t14 -27.5t-18 -29zM843 67q-130 -74 -331 -74t-331 74q-164 93 -164 278q0 183 166 273q128 70 329 70t329 -70q166 -89 166 -273q0 -185 -164 -278zM793 554
q-106 58 -281 58q-166 0 -272 -54q-134 -68 -134 -213q0 -141 125 -214q110 -63 281 -63q170 0 277 59q130 72 130 218q0 141 -126 209z" />
    <glyph glyph-name="Ocircumflex" unicode="&#xd4;" horiz-adv-x="1022" 
d="M613 681l-104 96l-104 -96h-113l190 183h52l197 -183h-118zM843 67q-130 -74 -331 -74t-331 74q-164 93 -164 278q0 183 166 273q128 69 329 69t329 -69q166 -89 166 -273q0 -185 -164 -278zM793 554q-106 58 -281 58q-166 0 -272 -54q-134 -69 -134 -213
q0 -141 125 -214q110 -63 281 -63q170 0 277 59q130 72 130 218q0 141 -126 209z" />
    <glyph glyph-name="Otilde" unicode="&#xd5;" horiz-adv-x="1022" 
d="M605 690q-32 0 -103 28q-61 23 -79 23q-27 0 -36 -21q-3 -8 -8 -46l-78 37q0 60 50 86q37 19 73 19q31 0 103 -27q61 -24 78 -24q15 0 29 10q10 7 15 55l83 -33q-11 -60 -47 -83q-39 -24 -80 -24zM843 67q-130 -74 -331 -74t-331 74q-164 93 -164 277q0 182 166 272
q128 69 329 69t329 -69q166 -89 166 -272q0 -185 -164 -277zM793 552q-106 58 -281 58q-166 0 -271 -54q-135 -68 -135 -212q0 -141 125 -213q110 -63 281 -63q170 0 277 59q130 72 130 217q0 140 -126 208z" />
    <glyph glyph-name="Odieresis" unicode="&#xd6;" horiz-adv-x="1022" 
d="M590 685q-45 0 -45 40v51q0 38 45 38q39 0 43 -37v-52q0 -40 -43 -40zM433 685q-43 0 -43 40v51q0 38 43 38q41 0 45 -37v-52q0 -40 -45 -40zM843 67q-130 -74 -331 -74t-331 74q-164 92 -164 277q0 182 166 272q128 69 329 69t329 -69q166 -90 166 -272
q0 -185 -164 -277zM793 552q-106 58 -281 58q-166 0 -271 -54q-135 -68 -135 -212q0 -141 125 -213q110 -63 281 -63q170 0 277 59q130 72 130 217q0 140 -126 208z" />
    <glyph glyph-name="multiply" unicode="&#xd7;" horiz-adv-x="661" 
d="M513 109l-182 100l-184 -98l-76 41l182 100l-179 97l76 43l181 -99l182 99l76 -43l-181 -98l185 -102z" />
    <glyph glyph-name="Oslash" unicode="&#xd8;" horiz-adv-x="1022" 
d="M843 64q-130 -73 -331 -73q-101 0 -183 18l-27 -38h-100l45 64q-105 40 -165 116q-65 81 -65 188q0 181 166 270q128 68 329 68q99 0 179 -16l30 43h99l-45 -66q232 -87 232 -299q0 -183 -164 -275zM727 573l-349 -496q61 -11 134 -11q167 0 273 56q134 71 134 217
q0 171 -192 234zM512 603q-166 0 -271 -53q-135 -68 -135 -211q0 -117 99 -191q39 -30 88 -47l350 492q-60 10 -131 10z" />
    <glyph glyph-name="Ugrave" unicode="&#xd9;" horiz-adv-x="896" 
d="M496 671q-48 33 -138 101q-33 28 -33 48q0 16 22 28q12 6 24 6q16 0 30 -10l139 -100q31 -26 31 -46q0 -17 -22 -30q-25 -12 -53 3zM715 39q-94 -46 -267 -46q-401 0 -401 270v427h88v-426q0 -196 313 -196q312 0 312 193v429h88v-429q0 -157 -133 -222z" />
    <glyph glyph-name="Uacute" unicode="&#xda;" horiz-adv-x="896" 
d="M400 674q-14 -9 -30 -9q-18 0 -31.5 11.5t-13.5 26.5q0 17 17 29l153 114q14 11 31 11q18 0 31.5 -11.5t13.5 -26.5q0 -17 -17 -29zM715 39q-94 -46 -267 -46q-401 0 -401 270v427h88v-426q0 -196 313 -196q312 0 312 193v429h88v-428q0 -158 -133 -223z" />
    <glyph glyph-name="Ucircumflex" unicode="&#xdb;" horiz-adv-x="896" 
d="M551 672l-106 97l-104 -97h-112l191 183h52l197 -183h-118zM715 39q-94 -46 -267 -46q-401 0 -401 270v427h88v-426q0 -196 313 -196q312 0 312 193v429h88v-428q0 -158 -133 -223z" />
    <glyph glyph-name="Udieresis" unicode="&#xdc;" horiz-adv-x="896" 
d="M526 685q-44 0 -44 40v51q0 38 44 38t44 -38v-51q0 -40 -44 -40zM370 685q-44 0 -44 40v51q0 38 44 38q45 0 45 -38v-51q0 -40 -45 -40zM715 39q-94 -46 -267 -46q-401 0 -401 270v424h88v-423q0 -196 313 -196q312 0 312 192v427h88v-426q0 -157 -133 -222z" />
    <glyph glyph-name="Yacute" unicode="&#xdd;" horiz-adv-x="887" 
d="M397 679q-13 -10 -30 -10q-18 0 -32 11.5t-14 26.5q0 16 17 28l154 115q14 11 31 11q18 0 31.5 -11.5t13.5 -26.5q0 -17 -17 -29zM489 326v-326h-88v326l-463 364h130l376 -295l378 295h129z" />
    <glyph glyph-name="Thorn" unicode="&#xde;" horiz-adv-x="574" 
d="M317 160h-180v-160h-89v678h89v-141h182q210 0 210 -191q0 -186 -212 -186zM317 463h-180v-230l182 1q121 0 121 112q0 117 -123 117z" />
    <glyph glyph-name="germandbls" unicode="&#xdf;" horiz-adv-x="682" 
d="M534 12q-97 -42 -278 -42v74q177 0 257 45q71 39 71 120q0 84 -98 127q-83 37 -230 37v75q153 0 206 14q68 19 68 67q0 50 -52 69q-48 17 -161 17q-180 0 -180 -113v-504h-89v375h-47v76h47q1 38 4 79q12 162 268 162q305 0 299 -158q-4 -89 -99 -126q153 -70 153 -197
q0 -136 -139 -197z" />
    <glyph glyph-name="agrave" unicode="&#xe0;" horiz-adv-x="745" 
d="M442 489q-25 -12 -53 3l-153 113q-18 13 -18 31q0 19 22 30q12 6 25 6q16 0 30 -10l152 -113q17 -12 17 -29q0 -21 -22 -31zM615 -1v73q-93 -83 -264 -83q-137 0 -231 60q-111 71 -111 201q0 132 111 203q94 61 236 61q168 0 259 -80v78h89v-513h-89zM538 395
q-70 45 -188 45q-108 0 -178 -48q-76 -51 -76 -142t76 -141q69 -46 178 -46t184 48q81 50 81 139q0 97 -77 145z" />
    <glyph glyph-name="aacute" unicode="&#xe1;" horiz-adv-x="745" 
d="M309 492q-16 -8 -30 -8q-20 0 -34 13q-10 10 -10 23q0 18 17 30l153 112q14 11 30 11q19 0 32 -11.5t13 -27.5t-17 -29zM631 -1v73q-93 -83 -264 -83q-137 0 -231 60q-111 71 -111 201q0 133 111 204q95 60 237 60q167 0 258 -79v77h89v-513h-89zM554 395q-70 45 -188 45
q-108 0 -178 -47q-76 -52 -76 -143t76 -141q69 -46 178 -46t184 48q81 51 81 139q0 96 -77 145z" />
    <glyph glyph-name="acircumflex" unicode="&#xe2;" horiz-adv-x="745" 
d="M459 494l-104 95l-104 -95h-112l189 180h53l198 -180h-120zM631 -1v73q-93 -83 -264 -83q-137 0 -231 60q-111 71 -111 201q0 133 111 204q95 60 237 60q167 0 258 -79v78h89v-514h-89zM554 395q-70 45 -188 45q-108 0 -178 -47q-76 -52 -76 -143t76 -141q69 -46 178 -46
t184 48q81 51 81 139q0 96 -77 145z" />
    <glyph glyph-name="atilde" unicode="&#xe3;" horiz-adv-x="745" 
d="M450 502q-33 0 -105 27q-61 24 -78 24q-27 0 -36 -21q-4 -8 -8 -46l-78 37q0 59 51 85q37 19 73 19q31 0 103 -28q61 -23 78 -23q15 0 29 10q10 7 15 54l83 -33q-12 -59 -49.5 -82t-77.5 -23zM631 -1v73q-93 -83 -264 -83q-137 0 -231 60q-111 70 -111 200q0 132 111 202
q95 61 237 61q167 0 258 -80v78h89v-511h-89zM554 393q-70 45 -188 45q-108 0 -178 -48q-76 -51 -76 -141t76 -140q69 -46 178 -46t184 47q81 51 81 139q0 95 -77 144z" />
    <glyph glyph-name="adieresis" unicode="&#xe4;" horiz-adv-x="745" 
d="M452 497q-45 0 -45 39v51q0 37 45 37q44 0 44 -37v-51q0 -39 -44 -39zM296 497q-44 0 -44 39v51q0 37 44 37t44 -37v-51q0 -39 -44 -39zM631 -1v73q-93 -83 -264 -83q-137 0 -231 60q-111 70 -111 200q0 131 111 202q95 60 237 60q167 0 258 -79v77h89v-510h-89zM554 393
q-70 44 -188 44q-108 0 -178 -47q-76 -51 -76 -141q0 -91 76 -141q69 -45 178 -45t184 47q81 51 81 139q0 95 -77 144z" />
    <glyph glyph-name="aring" unicode="&#xe5;" horiz-adv-x="745" 
d="M364 509q-47 0 -85 20q-51 26 -51 75q0 50 51 76q38 20 85 20t85 -20q49 -26 49 -76q0 -47 -45 -73q-38 -22 -89 -22zM631 -1v74q-93 -84 -264 -84q-138 0 -232 61q-110 71 -110 201q0 133 111 204q95 61 237 61q167 0 258 -80v78h89v-515h-89zM399 616q-15 8 -35 8
t-32.5 -6.5t-12.5 -13.5q0 -6 12.5 -12.5t32.5 -6.5t32.5 6.5t12.5 12.5q0 7 -10 12zM554 397q-70 45 -188 45q-108 0 -178 -48q-76 -52 -76 -143t76 -142q69 -46 178 -46t184 48q81 51 81 140q0 97 -77 146z" />
    <glyph glyph-name="ae" unicode="&#xe6;" horiz-adv-x="1328" 
d="M697 213l7 7v-2q0 -156 260 -156q191 0 253 112h94q-56 -119 -164 -157q-82 -28 -186 -28q-169 0 -257 68v-58h-89v71q-93 -81 -264 -81q-136 0 -230 58q-112 68 -112 196q0 129 111 198q94 59 236 59q168 0 259 -78v76h89v-79q101 81 263 81q137 0 232 -50
q119 -64 119 -189v-47zM967 427q-101 0 -178 -39q-81 -42 -85 -109q94 6 517 6q-13 76 -99 113q-66 29 -155 29zM538 384q-70 43 -188 43q-109 0 -178 -46q-76 -50 -76 -138t76 -137q68 -44 178 -44q109 0 185 46q80 49 80 135q0 94 -77 141z" />
    <glyph glyph-name="ccedilla" unicode="&#xe7;" 
d="M553 7q-80 -32 -183 -32q-142 0 -237 55q-118 68 -118 199q0 140 120 212q99 59 250 59q95 0 168 -29q98 -38 137 -143l-82 -29q-25 68 -77.5 97.5t-148.5 29.5q-120 0 -195 -46q-84 -53 -84 -151q0 -94 87 -141q70 -39 179 -39q83 0 146 26q74 29 97 112l86 -26
q-38 -113 -145 -154zM377 -174q-52 0 -172 24l49 68q78 -18 119 -18q79 0 79 19q0 5 -53 8q-37 2 -81 -14v48l16 89h84l-2 -49q130 -3 130 -86q0 -89 -169 -89z" />
    <glyph glyph-name="egrave" unicode="&#xe8;" 
d="M454 489q-25 -12 -51 4l-157 113q-14 14 -14 29t13.5 26.5t30.5 11.5t31 -11l154 -112q17 -12 17 -28q0 -22 -24 -33zM94 219q21 -156 260 -156q191 0 252 116h94q-54 -123 -162 -162q-81 -28 -187 -28q-148 0 -238 56q-108 68 -108 205q0 132 116 204q97 60 237 60
q139 0 232 -51q119 -66 119 -194v-49zM358 440q-98 0 -166 -35q-77 -39 -95 -112h515q-13 78 -97 117q-67 30 -157 30z" />
    <glyph glyph-name="eacute" unicode="&#xe9;" 
d="M464 609l-159 -115q-15 -8 -28 -8q-17 0 -31.5 11t-14.5 26t18 28l153 113q24 18 56 4q19 -13 19 -31q0 -13 -13 -28zM94 219q21 -156 260 -156q191 0 252 116h94q-54 -123 -162 -162q-81 -28 -187 -28q-148 0 -238 56q-108 68 -108 205q0 132 116 204q97 60 237 60
q139 0 232 -51q119 -66 119 -194v-49zM358 440q-98 0 -166 -35q-77 -39 -95 -112h515q-13 78 -97 117q-67 30 -157 30z" />
    <glyph glyph-name="ecircumflex" unicode="&#xea;" 
d="M456 494l-104 95l-104 -95h-113l192 180h52l196 -180h-119zM94 219q21 -156 260 -156q191 0 252 116h94q-54 -123 -162 -162q-81 -28 -187 -28q-148 0 -238 56q-108 68 -108 205q0 132 116 204q97 60 237 60q139 0 232 -51q119 -66 119 -194v-49zM358 440q-98 0 -166 -35
q-77 -39 -95 -112h515q-13 78 -97 117q-67 30 -157 30z" />
    <glyph glyph-name="edieresis" unicode="&#xeb;" 
d="M433 497q-43 0 -43 39v51q0 37 43 37q45 0 45 -37v-51q0 -39 -45 -39zM278 497q-45 0 -45 39v51q0 37 45 37q44 0 44 -37v-51q0 -39 -44 -39zM94 218q21 -155 260 -155q191 0 252 115h94q-54 -123 -163 -161q-80 -28 -186 -28q-148 0 -238 56q-108 67 -108 204
q0 131 116 202q97 60 237 60q139 0 232 -51q119 -65 119 -193v-48zM358 437q-98 0 -166 -35q-77 -38 -95 -110h515q-13 77 -98 115q-66 30 -156 30z" />
    <glyph glyph-name="igrave" unicode="&#xec;" horiz-adv-x="184" 
d="M191 489q-25 -12 -51 4q-49 32 -140 100q-32 26 -32 45q0 16 22 28q12 6 24 6q16 0 30 -10l154 -112q17 -12 17 -28q0 -22 -24 -33zM48 0v503h89v-503h-89z" />
    <glyph glyph-name="iacute" unicode="&#xed;" horiz-adv-x="184" 
d="M45 490q-14 -10 -30 -10q-19 0 -32.5 11.5t-13.5 26.5q0 16 17 28l154 112q14 11 31 11t30.5 -11.5t13.5 -26.5q0 -16 -17 -28zM48 0v503h89v-503h-89z" />
    <glyph glyph-name="icircumflex" unicode="&#xee;" horiz-adv-x="184" 
d="M188 494l-95 94l-99 -94h-110l181 180h55l185 -180h-117zM48 0v504h89v-504h-89z" />
    <glyph glyph-name="idieresis" unicode="&#xef;" horiz-adv-x="184" 
d="M174 497q-43 0 -43 40v50q0 37 43 37q45 0 45 -37v-50q0 -40 -45 -40zM19 497q-45 0 -45 40v50q0 37 45 37q43 0 43 -37v-50q0 -40 -43 -40zM48 0v500h89v-500h-89z" />
    <glyph glyph-name="eth" unicode="&#xf0;" horiz-adv-x="761" 
d="M615 -1v73q-93 -83 -264 -83q-137 0 -231 60q-111 71 -111 201q0 133 111 204q94 61 236 61q168 0 259 -80v102h-448v75h448v66h89v-679h-89zM538 396q-70 44 -188 44q-108 0 -178 -47q-76 -52 -76 -143t76 -141q69 -46 178 -46t184 48q81 51 81 139q0 97 -77 146z" />
    <glyph glyph-name="ntilde" unicode="&#xf1;" 
d="M524 522q-34 -19 -73 -19q-33 0 -105 27q-61 23 -79 23q-14 0 -25.5 -8t-13.5 -59l-83 37q0 59 51 85q37 19 73 19q32 0 103 -28q61 -23 79 -23q14 0 28 10q10 7 15 54l81 -32q-7 -61 -51 -86zM569 0v322q0 60 -62 90q-53 26 -136 26q-99 0 -162 -38q-72 -43 -72 -121
v-279h-89v501h89v-54q82 65 233 65q108 0 183 -34q105 -47 105 -147v-331h-89z" />
    <glyph glyph-name="ograve" unicode="&#xf2;" horiz-adv-x="736" 
d="M469 489q-25 -12 -53 3l-153 113q-18 13 -18 31q0 19 22 30q12 6 25 6q16 0 30 -10l152 -113q17 -12 17 -29q0 -21 -22 -31zM608 46q-97 -57 -241 -57q-143 0 -241 59q-117 70 -117 203t120 205q98 58 241 58q144 0 240 -58q118 -72 118 -205t-120 -205zM559 395
q-73 45 -190 45q-116 0 -191 -46q-81 -50 -81 -143q0 -92 82 -142q76 -46 190 -46q113 0 189 46q82 50 82 142q0 94 -81 144z" />
    <glyph glyph-name="oacute" unicode="&#xf3;" horiz-adv-x="736" 
d="M320 490q-13 -10 -29 -10q-19 0 -32.5 11.5t-13.5 26.5q0 16 16 28l154 112q14 11 31 11q18 0 31.5 -11.5t13.5 -26.5q0 -16 -17 -29zM608 46q-97 -57 -241 -57q-143 0 -241 58q-117 71 -117 204t120 205q98 58 241 58q144 0 240 -59q118 -71 118 -204t-120 -205z
M559 395q-73 45 -190 45q-116 0 -191 -46q-81 -50 -81 -143q0 -92 82 -142q76 -46 190 -46q113 0 189 46q82 50 82 142q0 94 -81 144z" />
    <glyph glyph-name="ocircumflex" unicode="&#xf4;" horiz-adv-x="736" 
d="M471 494l-104 95l-105 -95h-114l192 180h53l198 -180h-120zM608 47q-97 -58 -241 -58q-143 0 -241 59q-117 70 -117 203t120 205q98 58 241 58q144 0 240 -58q118 -72 118 -205t-120 -204zM559 395q-73 45 -190 45q-116 0 -191 -46q-81 -50 -81 -143q0 -92 82 -142
q76 -46 190 -46q113 0 189 46q82 50 82 142q0 94 -81 144z" />
    <glyph glyph-name="otilde" unicode="&#xf5;" horiz-adv-x="736" 
d="M534 522q-34 -20 -74 -20q-32 0 -104 27q-63 24 -78 24t-29 -9q-9 -7 -14 -58l-80 37q0 61 50 86q36 18 74 18q32 0 103 -28q60 -23 78 -23q20 0 30 11.5t19 52.5l76 -33q-9 -60 -51 -85zM608 46q-97 -57 -241 -57q-143 0 -241 58q-117 70 -117 203q0 132 120 203
q98 59 241 59q144 0 240 -59q118 -71 118 -203q0 -133 -120 -204zM559 393q-73 45 -190 45q-116 0 -191 -46q-81 -50 -81 -142t82 -141q76 -46 190 -46q113 0 189 46q82 49 82 141q0 93 -81 143z" />
    <glyph glyph-name="odieresis" unicode="&#xf6;" horiz-adv-x="736" 
d="M447 497q-45 0 -45 39v51q0 37 45 37q43 0 43 -37v-51q0 -39 -43 -39zM290 497q-43 0 -43 39v51q0 37 43 37q45 0 45 -37v-51q0 -39 -45 -39zM608 46q-97 -57 -241 -57q-143 0 -241 58q-117 70 -117 203q0 132 120 203q98 58 241 58q144 0 240 -58q118 -71 118 -203
q0 -133 -120 -204zM559 392q-73 45 -190 45q-116 0 -191 -45q-81 -50 -81 -142t82 -141q76 -46 190 -46q113 0 189 46q82 49 82 141q0 93 -81 142z" />
    <glyph glyph-name="divide" unicode="&#xf7;" horiz-adv-x="799" 
d="M400 273q-44 0 -44 36v54q0 35 44 35t44 -35v-54q0 -36 -44 -36zM37 205v70h704v-70h-704zM400 74q-44 0 -44 36v54q0 36 44 36t44 -36v-54q0 -36 -44 -36z" />
    <glyph glyph-name="oslash" unicode="&#xf8;" horiz-adv-x="736" 
d="M608 42q-97 -56 -241 -56q-72 0 -130 13l-33 -46h-102l54 74q-147 71 -147 218q0 131 120 202q98 58 241 58q65 0 121 -12l40 56h99l-57 -83q155 -70 155 -221q0 -132 -120 -203zM575 371q-23 18 -50 31l-241 -336q39 -7 85 -7q113 0 189 46q82 49 82 140q0 75 -65 126z
M369 431q-116 0 -191 -45q-81 -50 -81 -141q0 -99 105 -153l239 334q-34 5 -72 5z" />
    <glyph glyph-name="ugrave" unicode="&#xf9;" 
d="M454 485q-25 -12 -51 4l-154 113q-17 12 -17 29q0 19 21 31q11 7 23 7q17 0 31 -11l154 -112q17 -12 17 -29q0 -22 -24 -32zM569 -1v55q-82 -65 -232 -65q-113 0 -188 37q-101 49 -101 154v323h89v-322q0 -118 200 -118q106 0 165 39q67 43 67 130v271h89v-504h-89z" />
    <glyph glyph-name="uacute" unicode="&#xfa;" 
d="M308 494q-14 -10 -30 -11q-18 0 -32 12t-14 27q0 16 17 28l153 112q14 11 31 11q18 0 32 -11.5t14 -26.5q0 -17 -18 -30zM569 -1v55q-82 -65 -232 -65q-113 0 -188 37q-101 49 -101 155v322h89v-321q0 -119 200 -119q106 0 165 39q67 43 67 130v271h89v-504h-89z" />
    <glyph glyph-name="ucircumflex" unicode="&#xfb;" 
d="M456 494l-104 95l-104 -95h-113l192 180h52l196 -180h-119zM569 -1v55q-82 -65 -232 -65q-113 0 -188 37q-101 49 -101 155v322h89v-321q0 -119 200 -119q106 0 165 39q67 43 67 130v271h89v-504h-89z" />
    <glyph glyph-name="udieresis" unicode="&#xfc;" 
d="M432 497q-44 0 -44 39v51q0 37 44 37q45 0 45 -37v-51q0 -39 -45 -39zM277 497q-45 0 -45 39v51q0 37 45 37q43 0 43 -37v-51q0 -39 -43 -39zM569 -1v55q-82 -65 -232 -65q-113 0 -188 36q-101 49 -101 154v321h89v-320q0 -117 200 -117q106 0 165 38q67 43 67 129v270
h89v-501h-89z" />
    <glyph glyph-name="yacute" unicode="&#xfd;" horiz-adv-x="683" 
d="M452 608l-158 -117q-16 -8 -29 -8q-20 0 -34.5 11.5t-14.5 26.5q0 17 21 29l153 114q24 18 56 4q19 -13 19 -31q0 -13 -13 -29zM325 -179q-108 0 -184 28q-116 43 -124 173h87q8 -65 57 -95q53 -31 167 -31q241 0 241 137v11q-82 -66 -232 -66q-113 0 -188 37
q-101 50 -101 157v328h89v-327q0 -120 200 -120q106 0 165 39q67 44 67 133v275h89v-468q0 -211 -333 -211z" />
    <glyph glyph-name="thorn" unicode="&#xfe;" horiz-adv-x="761" 
d="M632 38q-91 -60 -236 -60q-166 0 -259 82v-228h-89v846h89v-247q92 81 257 81q145 0 236 -59q110 -71 110 -206q0 -137 -108 -209zM580 389q-68 48 -178 48q-111 0 -184 -47q-81 -51 -81 -142q0 -100 76 -150q68 -45 188 -45q111 0 178 47q74 51 74 146q0 93 -73 143z
" />
    <glyph glyph-name="ydieresis" unicode="&#xff;" horiz-adv-x="688" 
d="M423 495q-44 0 -44 40v51q0 38 44 38q40 0 44 -36v-53q0 -40 -44 -40zM267 495q-45 0 -45 40v51q0 38 45 38q36 0 44 -35v-54q0 -40 -44 -40zM325 -179q-108 0 -184 28q-116 43 -124 172h87q8 -65 57 -94q53 -31 167 -31q241 0 241 137v10q-82 -66 -232 -66
q-113 0 -188 37q-101 50 -101 157v327h89v-326q0 -120 200 -120q106 0 165 39q67 44 67 132v275h89v-466q0 -211 -333 -211z" />
    <glyph glyph-name="dotlessi" unicode="&#x131;" horiz-adv-x="184" 
d="M48 0v488h89v-488h-89z" />
    <glyph glyph-name="OE" unicode="&#x152;" horiz-adv-x="1363" 
d="M636 -1q-56 -7 -119 -7q-198 0 -330 74q-166 92 -166 271q0 181 165 273q130 73 331 73q46 0 90 -5h727v-74h-483q136 -80 157 -215h284v-73h-280q-10 -154 -155 -242h485v-75h-706zM818 532q-53 38 -127 56v-199h228q-17 86 -101 143zM691 316v-229q100 26 159 82
q66 60 73 147h-232zM604 604q-41 5 -87 5q-172 0 -282 -62q-125 -71 -125 -210t125 -210q110 -62 282 -62q46 0 87 6v533z" />
    <glyph glyph-name="oe" unicode="&#x153;" horiz-adv-x="1420" 
d="M765 213q21 -151 260 -151q191 0 253 112h94q-56 -119 -164 -157q-82 -28 -186 -28q-229 0 -308 121q-97 -121 -314 -121q-141 0 -238 56q-120 68 -120 199q0 130 119 199q97 57 241 57q229 0 317 -127q24 31 59 56q98 71 249 71q137 0 232 -50q120 -63 120 -189v-47z
M1027 427q-87 0 -156 -30q-85 -38 -104 -112h515q-13 76 -100 113q-66 29 -155 29zM592 384q-73 43 -191 43q-115 0 -190 -44q-81 -49 -81 -139t83 -139q73 -43 188 -43q83 0 150 26q85 32 111 98q10 26 10 58q0 92 -80 140z" />
    <glyph glyph-name="Scaron" unicode="&#x160;" horiz-adv-x="867" 
d="M455 690h-53l-191 184h113l104 -97l104 97h117zM688 28q-101 -35 -243 -35q-161 0 -265 37q-161 58 -161 198v38h88v-34q0 -164 340 -164q109 0 187 22q108 30 108 95q0 45 -39 68q-28 17 -96 31q-33 7 -192 32q-76 12 -120 20q-247 44 -247 177q0 184 372 184
q189 0 284 -53q106 -59 109 -188h-88q-5 61 -29.5 93.5t-75.5 49.5q-67 23 -200 23q-283 0 -283 -109q0 -50 71 -77q54 -20 186 -37q246 -32 329 -68q108 -46 108 -148q0 -105 -143 -155z" />
    <glyph glyph-name="scaron" unicode="&#x161;" horiz-adv-x="656" 
d="M349 503h-52l-192 181h114l104 -95l104 95h119zM504 10q-68 -23 -168 -23q-311 0 -311 223h91q0 -77 50.5 -112t170.5 -35q189 0 189 76q0 46 -125 67q-67 7 -133 15q-96 12 -146 39q-68 36 -68 103q0 84 100 124q70 29 159 29q300 0 300 -202h-92q0 66 -45 96t-156 30
q-65 0 -115 -18q-60 -21 -60 -59q0 -45 122 -61l143 -19q207 -26 207 -144q0 -91 -113 -129z" />
    <glyph glyph-name="Ydieresis" unicode="&#x178;" horiz-adv-x="895" 
d="M532 685q-44 0 -44 40v51q0 38 44 38q37 0 45 -35v-54q0 -40 -45 -40zM377 685q-45 0 -45 40v51q0 38 45 38q39 0 43 -36v-53q0 -40 -43 -40zM493 325v-325h-88v325l-465 363h132l376 -294l378 294h129z" />
    <glyph glyph-name="florin" unicode="&#x192;" horiz-adv-x="788" 
d="M817 592q-119 0 -186 -21q-105 -33 -135 -120h149l-29 -76h-147l-120 -354q-34 -98 -139 -143.5t-290 -45.5l27 74q270 0 311 119l119 350h-102l33 76h95l10 26q67 189 426 189z" />
    <glyph glyph-name="circumflex" unicode="&#x2c6;" horiz-adv-x="350" 
d="M278 540l-105 68l-105 -68h-120l199 134h50l206 -134h-125z" />
    <glyph glyph-name="caron" unicode="&#x2c7;" horiz-adv-x="184" 
d="M110 549h-51l-197 135h118l105 -69l105 69h126z" />
    <glyph glyph-name="macron" unicode="&#xaf;" horiz-adv-x="423" 
d="M17 597v19h390v-19h-390z" />
    <glyph glyph-name="macron" unicode="&#x2c9;" horiz-adv-x="423" 
d="M17 597v19h390v-19h-390z" />
    <glyph glyph-name="ring" unicode="&#x2da;" horiz-adv-x="184" 
d="M168 583q-37 -14 -82 -14q-46 0 -84 14q-52 20 -52 59t52 59q38 14 84 14q47 0 86 -16q50 -20 50 -57q0 -39 -54 -59zM86 654q-45 0 -45 -12t45 -12q46 0 46 12q0 2 -6 4q-18 8 -40 8z" />
    <glyph glyph-name="tilde" unicode="&#x2dc;" horiz-adv-x="494" 
d="M411 560q-35 -11 -74 -11q-30 0 -101 15q-62 14 -81 14q-16 0 -30 -6q-7 -3 -9 -32l-83 21q0 42 53 57q36 11 71 11q30 0 101 -16q62 -13 79 -13q18 0 33 6q8 3 12 30l84 -19q-14 -43 -55 -57z" />
    <glyph glyph-name="mu" unicode="&#x3bc;" horiz-adv-x="788" 
 />
    <glyph glyph-name="endash" unicode="&#x2013;" horiz-adv-x="668" 
d="M-30 254v20h726v-20h-726z" />
    <glyph glyph-name="emdash" unicode="&#x2014;" horiz-adv-x="1207" 
d="M-30 254v20h1264v-20h-1264z" />
    <glyph glyph-name="quoteleft" unicode="&#x2018;" horiz-adv-x="236" 
d="M135 522q-11 -22 -41 -22q-18 0 -31.5 8.5t-13.5 22.5q0 6 3 13l56 112q11 21 42 21q18 0 32 -8.5t14 -21.5q0 -7 -3 -14z" />
    <glyph glyph-name="quoteright" unicode="&#x2019;" horiz-adv-x="236" 
d="M136 522q-11 -21 -42 -21q-45 0 -45 30q0 6 3 14l58 111q11 21 41 21q18 0 31.5 -8.5t13.5 -21.5q0 -7 -3 -13z" />
    <glyph glyph-name="quotesinglbase" unicode="&#x201a;" horiz-adv-x="394" 
d="M187 -69q-10 -20 -49 -20q-38 0 -38 29q0 7 3 13l58 112q11 21 41 21q18 0 31.5 -8.5t13.5 -21.5q0 -7 -3 -13z" />
    <glyph glyph-name="quotedblleft" unicode="&#x201c;" horiz-adv-x="360" 
d="M276 522q-11 -22 -41 -22q-18 0 -31.5 9t-13.5 22q0 7 3 13l57 112q11 21 42 21q45 0 45 -30q0 -6 -3 -14zM135 522q-11 -22 -41 -22q-18 0 -31.5 8.5t-13.5 22.5q0 6 3 13l56 112q11 21 42 21q18 0 32 -8.5t14 -21.5q0 -7 -3 -14z" />
    <glyph glyph-name="quotedblright" unicode="&#x201d;" horiz-adv-x="373" 
d="M278 522q-11 -21 -42 -21q-46 0 -46 30q0 6 3 14l58 111q11 21 41 21q18 0 31.5 -8.5t13.5 -21.5q0 -7 -3 -13zM136 522q-11 -21 -42 -21q-45 0 -45 30q0 6 3 14l58 111q11 21 41 21q18 0 31.5 -8.5t13.5 -21.5q0 -7 -3 -13z" />
    <glyph glyph-name="quotedblbase" unicode="&#x201e;" horiz-adv-x="474" 
d="M329 -69q-10 -20 -47 -20q-41 0 -41 36q16 22 33 58l29 60q11 21 41 21q18 0 31.5 -8.5t13.5 -21.5q0 -7 -3 -13zM187 -69q-10 -20 -49 -20q-38 0 -38 29q0 7 3 13l58 112q11 21 41 21q18 0 31.5 -8.5t13.5 -21.5q0 -7 -3 -13z" />
    <glyph glyph-name="dagger" unicode="&#x2020;" horiz-adv-x="466" 
d="M266 428v-485h-88v485h-158v75h158v118h88v-118h160v-75h-160z" />
    <glyph glyph-name="daggerdbl" unicode="&#x2021;" horiz-adv-x="455" 
d="M273 36v-93h-88v93h-160v76h160v316h-160v75h160v118h88v-118h158v-75h-158v-316h158v-76h-158z" />
    <glyph glyph-name="bullet" unicode="&#x2022;" horiz-adv-x="394" 
d="M163 250q-54 0 -91 13q-28 10 -28 18v88q0 8 28 18q37 13 91 13t91 -13q28 -10 28 -18v-88q0 -8 -28 -18q-37 -13 -91 -13z" />
    <glyph glyph-name="ellipsis" unicode="&#x2026;" horiz-adv-x="861" 
d="M707 -2q-44 0 -44 26v35q0 26 44 26t44 -26v-35q0 -26 -44 -26zM452 -2q-45 0 -45 26v35q0 26 45 26q44 0 44 -26v-35q0 -26 -44 -26zM197 -2q-45 0 -45 26v35q0 26 45 26q44 0 44 -26v-35q0 -26 -44 -26z" />
    <glyph glyph-name="perthousand" unicode="&#x2030;" horiz-adv-x="1366" 
d="M1142 -19q-209 0 -209 187q0 192 210 192q211 0 211 -192q0 -187 -212 -187zM732 -19q-211 0 -211 187q0 192 212 192q210 0 210 -192q0 -187 -211 -187zM202 -2h-118l702 680h117zM232 281q-209 0 -209 187q0 191 211 191q210 0 210 -191q0 -187 -212 -187zM1142 286
q-120 0 -120 -118q0 -113 121 -113q122 0 122 113q0 118 -123 118zM732 286q-122 0 -122 -118q0 -113 123 -113q120 0 120 113q0 118 -121 118zM232 584q-120 0 -120 -116q0 -113 122 -113q121 0 121 113q0 116 -123 116z" />
    <glyph glyph-name="guilsinglleft" unicode="&#x2039;" horiz-adv-x="397" 
d="M66 250v48l261 111v-75l-137 -60l137 -60v-73z" />
    <glyph glyph-name="guilsinglright" unicode="&#x203a;" horiz-adv-x="397" 
d="M66 141v73l137 60l-137 60v75l261 -111v-48z" />
    <glyph glyph-name="trademark" unicode="&#x2122;" horiz-adv-x="1065" 
d="M930 347v205l-167 -205h-61l-175 210q1 -69 1 -210h-94v265h-99v-265h-94v265h-199v72h489l201 -240l198 240h95v-337h-95z" />
    <glyph glyph-name="minus" unicode="&#xad;" horiz-adv-x="799" 
d="M37 231v19h704v-19h-704z" />
    <glyph glyph-name="minus" unicode="&#x2212;" horiz-adv-x="799" 
d="M37 231v19h704v-19h-704z" />
    <glyph glyph-name="periodcentered" unicode="&#xb7;" horiz-adv-x="282" 
d="M161 280q-45 0 -45 27v34q0 26 45 26q43 0 43 -26v-34q0 -27 -43 -27z" />
    <glyph glyph-name="periodcentered" unicode="&#x2219;" horiz-adv-x="282" 
d="M161 280q-45 0 -45 27v34q0 26 45 26q43 0 43 -26v-34q0 -27 -43 -27z" />
    <glyph glyph-name="glyph221" horiz-adv-x="478" 
 />
    <glyph glyph-name="glyph222" horiz-adv-x="478" 
 />
    <glyph glyph-name="glyph221" horiz-adv-x="478" 
 />
    <glyph glyph-name="glyph222" horiz-adv-x="478" 
 />
    <glyph glyph-name="nonbreakingspace" unicode="&#xa0;" 
 />
    <glyph glyph-name="ch333" horiz-adv-x="478" 
 />
    <glyph glyph-name="glyph223" horiz-adv-x="478" 
 />
    <glyph glyph-name="ch335" horiz-adv-x="394" 
 />
    <glyph glyph-name="ch334" horiz-adv-x="394" 
 />
    <glyph glyph-name="ch337" horiz-adv-x="394" 
 />
    <glyph glyph-name="ch336" horiz-adv-x="394" 
 />
    <glyph glyph-name="ch339" horiz-adv-x="394" 
 />
    <glyph glyph-name="ch338" horiz-adv-x="394" 
 />
    <glyph glyph-name="glyph224" horiz-adv-x="394" 
 />
    <glyph glyph-name="ch340" horiz-adv-x="394" 
 />
    <glyph glyph-name="ch343" horiz-adv-x="394" 
 />
    <glyph glyph-name="glyph225" horiz-adv-x="394" 
 />
    <glyph glyph-name="glyph226" horiz-adv-x="394" 
 />
    <glyph glyph-name="ch344" horiz-adv-x="394" 
 />
    <glyph glyph-name="ch347" horiz-adv-x="394" 
 />
    <glyph glyph-name="ch342" horiz-adv-x="394" 
 />
    <glyph glyph-name="ch263" horiz-adv-x="394" 
 />
    <glyph glyph-name="glyph103" horiz-adv-x="567" 
d="M711 422q0 37 -12 53.5t-46 27.5q-39 13 -87 13q-57 0 -100 -18q-47 -20 -47 -52q0 -68 -89 -106q-66 -29 -142 -29q-79 0 -144 28q-90 38 -90 133h87q0 -33 10 -49t35 -27q44 -18 102 -18q57 0 99 18q46 19 46 50q0 74 102 114q59 23 131 23q80 0 143 -28
q88 -38 88 -135z" />
    <glyph glyph-name="glyph214" horiz-adv-x="472" 
d="M349 373v-117h-94v117h-389l258 285h113l-192 -212h210v213l94 -3v-210h125v-73h-125z" />
    <glyph glyph-name=".null" horiz-adv-x="0" 
 />
  </font>
</defs>
</svg>
